<svg xmlns="http://www.w3.org/2000/svg" xmlns:xlink="http://www.w3.org/1999/xlink" width="48px" height="20px"
     viewBox="0 0 48 20" preserveAspectRatio="xMidYMid meet">
    <rect id="svgEditorBackground" x="0" y="0" width="48" height="20" style="fill: none; stroke: none;"/>
    <defs id="svgEditorDefs">
        <polygon id="svgEditorShapeDefs"
                 style="stroke:black;vector-effect:non-scaling-stroke;stroke-width:1px;"/>
        <linearGradient gradientUnits="objectBoundingBox" id="redGradient" spreadMethod="pad" x1="0%"
                        x2="0%" y1="0%" y2="100%">
            <stop offset="0%" style="stop-color: firebrick;"/>
            <stop offset="0.50" style="stop-color: red;"/>
        </linearGradient>
    </defs>
    <rect x="0" y="0"
          style="fill:url(#redGradient);stroke:black;stroke-width:1px;" id="e3_rectangle" width="48"
          height="24"/>
    <path d="M111.85584497866046,72.77070929826563c-3.201999999999998,-2.8130000000000024,-8.105999999999995,-2.4549999999999983,-11.119,0.5580000000000069l-34.179,34.20500000000001l-34.337,-34.36200000000001c-3.0930000000000035,-3.0919999999999987,-8.108000000000004,-3.0919999999999987,-11.201,0l-0.11299999999999955,0.11299999999999955c-3.0929999999999964,3.0930000000000035,-3.0929999999999964,8.107,0,11.201000000000008l34.341,34.365999999999985l-34.34,34.366000000000014c-3.0930000000000035,3.0929999999999893,-3.0930000000000035,8.108000000000004,0,11.200999999999993l0.11299999999999955,0.11299999999999955c3.0930000000000035,3.0930000000000177,8.107,3.0930000000000177,11.200999999999993,0l34.33700000000002,-34.363l34.179,34.20500000000001c3.0130000000000052,3.0130000000000052,7.917000000000002,3.3700000000000045,11.119,0.5580000000000211c3.507000000000005,-3.0810000000000173,3.6370000000000005,-8.42900000000003,0.38800000000000523,-11.677999999999997l-34.37899999999999,-34.40300000000002l34.37700000000001,-34.403999999999996c3.25,-3.2489999999999952,3.1200000000000045,-8.596000000000004,-0.38800000000000523,-11.676999999999992Z"
          style="fill:white; stroke:white; vector-effect:non-scaling-stroke;stroke-width:1px;" id="e5_shape"
          transform="matrix(0.231543 0 0 0.231543 287.503 329.74)"/>
</svg>